<svg 
 xmlns="http://www.w3.org/2000/svg"
 xmlns:xlink="http://www.w3.org/1999/xlink"
 width="35px" height="35px">
<path fill-rule="evenodd"  fill="rgb(51, 51, 51)"
 d="M17.500,34.998 C7.835,34.998 -0.000,27.163 -0.000,17.499 C-0.000,7.834 7.835,-0.002 17.500,-0.002 C27.165,-0.002 35.000,7.834 35.000,17.499 C35.000,27.163 27.165,34.998 17.500,34.998 ZM12.506,9.998 C11.595,9.998 11.000,10.649 11.000,11.505 C11.000,12.342 11.578,13.012 12.471,13.012 L12.488,13.012 C13.417,13.012 13.994,12.342 13.994,11.505 C13.976,10.649 13.417,9.998 12.506,9.998 ZM13.999,13.989 L11.003,13.989 L11.003,23.998 L13.999,23.998 L13.999,13.989 ZM26.000,18.389 C26.000,15.384 24.383,13.986 22.227,13.986 C20.486,13.986 19.709,14.936 19.273,15.602 L19.273,13.998 L15.996,13.998 C16.040,14.916 15.996,23.998 15.996,23.998 L19.002,23.998 L19.002,18.535 C19.002,18.243 19.024,17.951 19.110,17.742 C19.347,17.157 20.158,16.553 21.063,16.553 C22.249,16.553 22.995,17.450 22.995,18.765 L22.995,23.998 L26.000,23.998 L26.000,18.389 ZM19.252,15.634 C19.258,15.624 19.267,15.613 19.273,15.602 L19.273,15.634 L19.252,15.634 Z"/>
</svg>